<svg xmlns="http://www.w3.org/2000/svg" xmlns:xlink="http://www.w3.org/1999/xlink" width="1366" zoomAndPan="magnify" viewBox="0 0 1024.5 231.75" height="309" preserveAspectRatio="xMidYMid meet" version="1.0"><defs><filter x="0%" y="0%" width="100%" height="100%" id="28e680d9b7"><feColorMatrix values="0 0 0 0 1 0 0 0 0 1 0 0 0 0 1 0 0 0 1 0" color-interpolation-filters="sRGB"/></filter><mask id="46f1c72dfd"><g filter="url(#28e680d9b7)"><rect x="-102.45" width="1229.4" fill="#000000" y="-23.175" height="278.1" fill-opacity="0.54"/></g></mask><clipPath id="ec9f63bd57"><path d="M 0.890625 199 L 3 199 L 3 200.785156 L 0.890625 200.785156 Z M 0.890625 199 " clip-rule="nonzero"/></clipPath><clipPath id="7acf8ebdf0"><path d="M 20 199.269531 L 22.707031 199.269531 L 22.707031 200.785156 L 20 200.785156 Z M 20 199.269531 " clip-rule="nonzero"/></clipPath><clipPath id="81d1c6c496"><path d="M 40 199.269531 L 42 199.269531 L 42 200.785156 L 40 200.785156 Z M 40 199.269531 " clip-rule="nonzero"/></clipPath><clipPath id="0177013338"><path d="M 60 199.269531 L 61.796875 199.269531 L 61.796875 200.785156 L 60 200.785156 Z M 60 199.269531 " clip-rule="nonzero"/></clipPath><clipPath id="8860499345"><path d="M 79.070312 200 L 80.886719 200 L 80.886719 200.785156 L 79.070312 200.785156 Z M 79.070312 200 " clip-rule="nonzero"/></clipPath><clipPath id="ddba42fdf1"><path d="M 99.070312 200 L 100.886719 200 L 100.886719 200.785156 L 99.070312 200.785156 Z M 99.070312 200 " clip-rule="nonzero"/></clipPath><clipPath id="e8cf1f6783"><path d="M 119.070312 200.179688 L 119.980469 200.179688 L 119.980469 200.785156 L 119.070312 200.785156 Z M 119.070312 200.179688 " clip-rule="nonzero"/></clipPath><clipPath id="a0b88ca0d0"><path d="M 138.160156 200.179688 L 139.980469 200.179688 L 139.980469 200.785156 L 138.160156 200.785156 Z M 138.160156 200.179688 " clip-rule="nonzero"/></clipPath><clipPath id="5a1bdd9b4f"><path d="M 158.160156 200.179688 L 159 200.179688 L 159 200.785156 L 158.160156 200.785156 Z M 158.160156 200.179688 " clip-rule="nonzero"/></clipPath><clipPath id="3a2b036185"><path d="M 408 0 L 409.859375 0 L 409.859375 3 L 408 3 Z M 408 0 " clip-rule="nonzero"/></clipPath><clipPath id="34131197b3"><path d="M 178.160156 200.179688 L 179 200.179688 L 179 200.785156 L 178.160156 200.785156 Z M 178.160156 200.179688 " clip-rule="nonzero"/></clipPath><clipPath id="0495312798"><rect x="0" width="410" y="0" height="202"/></clipPath></defs><g mask="url(#46f1c72dfd)"><g transform="matrix(1, 0, 0, 1, 556, -0.000000000000006837)"><g clip-path="url(#0495312798)"><path fill="#ffffff" d="M 226.316406 13.203125 C 224.707031 12.050781 223.714844 10.371094 223.304688 8.660156 C 222.894531 6.941406 223.058594 5.1875 223.890625 3.6875 C 224.726562 2.1875 226.09375 1.171875 227.742188 0.613281 C 229.386719 0.0703125 231.328125 -0.0195312 233.183594 0.671875 C 235.035156 1.363281 236.425781 2.785156 237.046875 4.625 C 237.675781 6.449219 237.511719 8.675781 236.425781 10.636719 C 235.339844 12.597656 233.570312 13.871094 231.71875 14.304688 C 229.859375 14.746094 227.917969 14.359375 226.316406 13.203125 " fill-opacity="1" fill-rule="nonzero"/><path fill="#ffffff" d="M 206.976562 33.085938 C 205.820312 31.679688 205.335938 29.941406 205.453125 28.28125 C 205.570312 26.621094 206.285156 25.03125 207.578125 23.875 C 208.871094 22.714844 210.507812 22.1875 212.164062 22.25 C 213.820312 22.3125 215.496094 22.964844 216.785156 24.257812 C 218.074219 25.546875 218.710938 27.25 218.640625 28.96875 C 218.582031 30.6875 217.816406 32.425781 216.394531 33.699219 C 214.972656 34.976562 213.179688 35.539062 211.46875 35.417969 C 209.761719 35.296875 208.132812 34.496094 206.976562 33.085938 " fill-opacity="1" fill-rule="nonzero"/><path fill="#ffffff" d="M 184.464844 49.394531 C 182.640625 46.601562 183.398438 42.886719 186.097656 41.054688 C 187.449219 40.136719 189.046875 39.851562 190.558594 40.128906 C 192.066406 40.40625 193.484375 41.25 194.453125 42.609375 C 195.414062 43.964844 195.734375 45.59375 195.449219 47.128906 C 195.167969 48.65625 194.285156 50.089844 192.878906 51.042969 C 190.0625 52.957031 186.28125 52.191406 184.464844 49.394531 " fill-opacity="1" fill-rule="nonzero"/><path fill="#ffffff" d="M 160.765625 63.953125 C 159.246094 61.339844 160.121094 57.996094 162.695312 56.46875 C 165.269531 54.941406 168.613281 55.78125 170.183594 58.367188 C 171.753906 60.953125 170.90625 64.332031 168.28125 65.886719 C 165.652344 67.445312 162.28125 66.570312 160.765625 63.953125 " fill-opacity="1" fill-rule="nonzero"/><path fill="#ffffff" d="M 136.519531 77.578125 C 135.214844 75.195312 136.085938 72.214844 138.457031 70.914062 C 140.820312 69.605469 143.804688 70.464844 145.121094 72.835938 C 146.441406 75.207031 145.578125 78.199219 143.195312 79.515625 C 140.808594 80.832031 137.820312 79.957031 136.519531 77.578125 " fill-opacity="1" fill-rule="nonzero"/><path fill="#ffffff" d="M 112.058594 90.820312 C 110.921875 88.707031 111.707031 86.066406 113.820312 84.929688 C 115.933594 83.789062 118.574219 84.578125 119.710938 86.691406 C 120.855469 88.800781 120.0625 91.441406 117.953125 92.582031 C 115.839844 93.722656 113.203125 92.933594 112.058594 90.820312 " fill-opacity="1" fill-rule="nonzero"/><path fill="#ffffff" d="M 87.660156 104.171875 C 86.640625 102.34375 87.300781 100.039062 89.136719 99.023438 C 90.96875 98.007812 93.273438 98.671875 94.285156 100.503906 C 95.292969 102.332031 94.628906 104.632812 92.800781 105.644531 C 90.976562 106.652344 88.679688 105.996094 87.660156 104.171875 " fill-opacity="1" fill-rule="nonzero"/><path fill="#ffffff" d="M 63.566406 118.058594 C 62.644531 116.539062 63.136719 114.550781 64.679688 113.636719 C 66.214844 112.71875 68.195312 113.226562 69.097656 114.761719 C 70 116.296875 69.496094 118.265625 67.976562 119.171875 C 66.460938 120.074219 64.488281 119.582031 63.566406 118.058594 " fill-opacity="1" fill-rule="nonzero"/><path fill="#ffffff" d="M 40.292969 133.28125 C 39.433594 132.089844 39.714844 130.421875 40.929688 129.566406 C 42.144531 128.710938 43.808594 129.007812 44.640625 130.21875 C 45.472656 131.425781 45.175781 133.078125 43.988281 133.910156 C 42.804688 134.746094 41.15625 134.46875 40.292969 133.28125 " fill-opacity="1" fill-rule="nonzero"/><path fill="#ffffff" d="M 18.921875 151.035156 C 18.105469 150.214844 18.125 148.875 18.976562 148.058594 C 19.828125 147.246094 21.164062 147.289062 21.949219 148.136719 C 22.734375 148.984375 22.695312 150.304688 21.875 151.089844 C 21.050781 151.875 19.734375 151.855469 18.921875 151.035156 " fill-opacity="1" fill-rule="nonzero"/><path fill="#ffffff" d="M 3.359375 173.851562 C 2.570312 173.546875 2.191406 172.632812 2.535156 171.832031 C 2.878906 171.027344 3.796875 170.675781 4.566406 171.035156 C 5.328125 171.394531 5.667969 172.285156 5.347656 173.039062 C 5.027344 173.789062 4.144531 174.15625 3.359375 173.851562 " fill-opacity="1" fill-rule="nonzero"/><g clip-path="url(#ec9f63bd57)"><path fill="#ffffff" d="M 2.1875 201.007812 C 1.683594 201.199219 1.121094 200.929688 0.941406 200.40625 C 0.765625 199.882812 1.050781 199.328125 1.5625 199.171875 C 2.074219 199.019531 2.609375 199.292969 2.777344 199.785156 C 2.941406 200.269531 2.6875 200.8125 2.1875 201.007812 " fill-opacity="1" fill-rule="nonzero"/></g><path fill="#ffffff" d="M 247.089844 11.476562 C 245.691406 10.535156 244.800781 9.128906 244.410156 7.671875 C 244.023438 6.207031 244.136719 4.695312 244.832031 3.378906 C 245.53125 2.058594 246.703125 1.152344 248.113281 0.652344 C 249.519531 0.164062 251.175781 0.0820312 252.757812 0.671875 C 254.335938 1.265625 255.527344 2.46875 256.074219 4.019531 C 256.628906 5.558594 256.523438 7.433594 255.640625 9.097656 C 254.757812 10.765625 253.289062 11.875 251.722656 12.285156 C 250.15625 12.695312 248.488281 12.417969 247.089844 11.476562 " fill-opacity="1" fill-rule="nonzero"/><path fill="#ffffff" d="M 228.019531 31.863281 C 227.019531 30.675781 226.59375 29.195312 226.679688 27.773438 C 226.765625 26.351562 227.367188 24.988281 228.472656 23.988281 C 229.574219 22.988281 230.980469 22.523438 232.394531 22.566406 C 233.8125 22.617188 235.242188 23.171875 236.34375 24.277344 C 237.441406 25.375 237.984375 26.824219 237.933594 28.292969 C 237.890625 29.753906 237.25 31.234375 236.054688 32.324219 C 234.851562 33.414062 233.332031 33.90625 231.878906 33.8125 C 230.417969 33.722656 229.023438 33.054688 228.019531 31.863281 " fill-opacity="1" fill-rule="nonzero"/><path fill="#ffffff" d="M 205.476562 48.453125 C 203.914062 46.074219 204.542969 42.898438 206.847656 41.324219 C 209.15625 39.75 212.332031 40.320312 213.984375 42.636719 C 215.636719 44.953125 215.054688 48.199219 212.660156 49.832031 C 210.265625 51.464844 207.039062 50.828125 205.476562 48.453125 " fill-opacity="1" fill-rule="nonzero"/><path fill="#ffffff" d="M 181.664062 63.179688 C 180.363281 60.953125 181.105469 58.101562 183.300781 56.792969 C 185.5 55.488281 188.355469 56.199219 189.695312 58.410156 C 191.03125 60.609375 190.3125 63.492188 188.074219 64.824219 C 185.835938 66.152344 182.964844 65.410156 181.664062 63.179688 " fill-opacity="1" fill-rule="nonzero"/><path fill="#ffffff" d="M 157.269531 76.933594 C 156.15625 74.902344 156.894531 72.359375 158.917969 71.246094 C 160.9375 70.132812 163.484375 70.863281 164.609375 72.886719 C 165.734375 74.90625 165 77.464844 162.964844 78.582031 C 160.933594 79.703125 158.378906 78.960938 157.269531 76.933594 " fill-opacity="1" fill-rule="nonzero"/><path fill="#ffffff" d="M 132.644531 90.277344 C 131.671875 88.472656 132.347656 86.222656 134.152344 85.246094 C 135.953125 84.273438 138.203125 84.945312 139.175781 86.75 C 140.148438 88.554688 139.476562 90.804688 137.675781 91.777344 C 135.871094 92.75 133.621094 92.082031 132.644531 90.277344 " fill-opacity="1" fill-rule="nonzero"/><path fill="#ffffff" d="M 108.070312 103.707031 C 107.207031 102.148438 107.765625 100.175781 109.332031 99.3125 C 110.894531 98.449219 112.863281 99.015625 113.722656 100.578125 C 114.585938 102.140625 114.015625 104.101562 112.460938 104.964844 C 110.902344 105.828125 108.9375 105.265625 108.070312 103.707031 " fill-opacity="1" fill-rule="nonzero"/><path fill="#ffffff" d="M 83.796875 117.664062 C 83.011719 116.367188 83.433594 114.671875 84.75 113.890625 C 86.058594 113.109375 87.75 113.542969 88.519531 114.851562 C 89.289062 116.160156 88.855469 117.84375 87.5625 118.613281 C 86.265625 119.386719 84.582031 118.964844 83.796875 117.664062 " fill-opacity="1" fill-rule="nonzero"/><path fill="#ffffff" d="M 60.339844 132.945312 C 59.605469 131.925781 59.84375 130.507812 60.882812 129.777344 C 61.914062 129.050781 63.335938 129.300781 64.046875 130.335938 C 64.757812 131.367188 64.503906 132.777344 63.492188 133.488281 C 62.476562 134.203125 61.070312 133.960938 60.339844 132.945312 " fill-opacity="1" fill-rule="nonzero"/><path fill="#ffffff" d="M 38.769531 150.765625 C 38.078125 150.066406 38.09375 148.921875 38.820312 148.230469 C 39.542969 147.542969 40.683594 147.574219 41.355469 148.296875 C 42.027344 149.023438 41.992188 150.144531 41.289062 150.816406 C 40.585938 151.484375 39.460938 151.46875 38.769531 150.765625 " fill-opacity="1" fill-rule="nonzero"/><path fill="#ffffff" d="M 23.007812 173.671875 C 22.335938 173.410156 22.007812 172.632812 22.304688 171.949219 C 22.59375 171.269531 23.378906 170.96875 24.03125 171.269531 C 24.6875 171.570312 24.980469 172.335938 24.707031 172.980469 C 24.429688 173.625 23.675781 173.941406 23.007812 173.671875 " fill-opacity="1" fill-rule="nonzero"/><g clip-path="url(#7acf8ebdf0)"><path fill="#ffffff" d="M 21.761719 201.007812 C 21.335938 201.167969 20.855469 200.945312 20.703125 200.5 C 20.546875 200.054688 20.785156 199.582031 21.222656 199.445312 C 21.660156 199.308594 22.117188 199.542969 22.265625 199.960938 C 22.410156 200.378906 22.1875 200.84375 21.761719 201.007812 " fill-opacity="1" fill-rule="nonzero"/></g><path fill="#ffffff" d="M 267.652344 9.96875 C 266.433594 9.199219 265.636719 8.019531 265.277344 6.78125 C 264.917969 5.535156 264.996094 4.230469 265.578125 3.078125 C 266.164062 1.929688 267.164062 1.121094 268.367188 0.675781 C 269.570312 0.238281 270.984375 0.167969 272.335938 0.671875 C 273.679688 1.179688 274.699219 2.203125 275.175781 3.507812 C 275.660156 4.808594 275.59375 6.382812 274.878906 7.800781 C 274.15625 9.214844 272.9375 10.175781 271.617188 10.550781 C 270.289062 10.929688 268.863281 10.734375 267.652344 9.96875 " fill-opacity="1" fill-rule="nonzero"/><path fill="#ffffff" d="M 248.84375 30.804688 C 247.976562 29.792969 247.601562 28.539062 247.664062 27.328125 C 247.734375 26.113281 248.242188 24.941406 249.179688 24.078125 C 250.117188 23.210938 251.324219 22.808594 252.535156 22.839844 C 253.746094 22.875 254.964844 23.347656 255.902344 24.289062 C 256.839844 25.230469 257.304688 26.464844 257.265625 27.714844 C 257.234375 28.960938 256.699219 30.214844 255.6875 31.144531 C 254.675781 32.078125 253.386719 32.5 252.148438 32.433594 C 250.902344 32.367188 249.707031 31.808594 248.84375 30.804688 " fill-opacity="1" fill-rule="nonzero"/><path fill="#ffffff" d="M 226.28125 47.636719 C 224.9375 45.613281 225.46875 42.902344 227.433594 41.550781 C 229.402344 40.203125 232.117188 40.6875 233.523438 42.664062 C 234.933594 44.636719 234.441406 47.402344 232.40625 48.800781 C 230.371094 50.195312 227.621094 49.660156 226.28125 47.636719 " fill-opacity="1" fill-rule="nonzero"/><path fill="#ffffff" d="M 202.371094 62.519531 C 201.257812 60.621094 201.882812 58.1875 203.757812 57.070312 C 205.632812 55.953125 208.074219 56.558594 209.214844 58.441406 C 210.355469 60.324219 209.742188 62.78125 207.835938 63.914062 C 205.933594 65.050781 203.484375 64.417969 202.371094 62.519531 " fill-opacity="1" fill-rule="nonzero"/><path fill="#ffffff" d="M 177.851562 76.382812 C 176.898438 74.652344 177.53125 72.480469 179.253906 71.53125 C 180.976562 70.578125 183.148438 71.203125 184.109375 72.929688 C 185.066406 74.65625 184.441406 76.832031 182.707031 77.789062 C 180.976562 78.746094 178.800781 78.113281 177.851562 76.382812 " fill-opacity="1" fill-rule="nonzero"/><path fill="#ffffff" d="M 153.089844 89.8125 C 152.257812 88.269531 152.828125 86.351562 154.367188 85.519531 C 155.90625 84.695312 157.828125 85.265625 158.65625 86.804688 C 159.484375 88.339844 158.914062 90.261719 157.375 91.09375 C 155.835938 91.921875 153.917969 91.34375 153.089844 89.8125 " fill-opacity="1" fill-rule="nonzero"/><path fill="#ffffff" d="M 128.363281 103.308594 C 127.625 101.976562 128.105469 100.300781 129.4375 99.5625 C 130.773438 98.828125 132.449219 99.308594 133.183594 100.640625 C 133.917969 101.972656 133.433594 103.644531 132.105469 104.382812 C 130.777344 105.117188 129.101562 104.636719 128.363281 103.308594 " fill-opacity="1" fill-rule="nonzero"/><path fill="#ffffff" d="M 103.933594 117.328125 C 103.265625 116.21875 103.628906 114.773438 104.75 114.109375 C 105.867188 113.445312 107.304688 113.8125 107.960938 114.929688 C 108.617188 116.046875 108.253906 117.480469 107.144531 118.140625 C 106.039062 118.796875 104.601562 118.4375 103.933594 117.328125 " fill-opacity="1" fill-rule="nonzero"/><path fill="#ffffff" d="M 80.3125 132.660156 C 79.691406 131.792969 79.898438 130.578125 80.777344 129.960938 C 81.664062 129.339844 82.871094 129.558594 83.476562 130.433594 C 84.085938 131.316406 83.871094 132.515625 83.003906 133.125 C 82.136719 133.734375 80.933594 133.527344 80.3125 132.660156 " fill-opacity="1" fill-rule="nonzero"/><path fill="#ffffff" d="M 58.582031 150.539062 C 57.992188 149.9375 58.007812 148.964844 58.625 148.378906 C 59.242188 147.785156 60.210938 147.816406 60.785156 148.433594 C 61.359375 149.050781 61.332031 150.007812 60.730469 150.582031 C 60.128906 151.15625 59.171875 151.136719 58.582031 150.539062 " fill-opacity="1" fill-rule="nonzero"/><path fill="#ffffff" d="M 42.644531 173.519531 C 42.070312 173.292969 41.792969 172.632812 42.042969 172.054688 C 42.292969 171.476562 42.957031 171.214844 43.515625 171.472656 C 44.078125 171.726562 44.332031 172.378906 44.09375 172.925781 C 43.859375 173.480469 43.214844 173.746094 42.644531 173.519531 " fill-opacity="1" fill-rule="nonzero"/><g clip-path="url(#81d1c6c496)"><path fill="#ffffff" d="M 41.339844 201.007812 C 40.976562 201.144531 40.566406 200.957031 40.433594 200.578125 C 40.304688 200.199219 40.503906 199.796875 40.875 199.679688 C 41.246094 199.558594 41.636719 199.757812 41.761719 200.109375 C 41.886719 200.46875 41.703125 200.867188 41.339844 201.007812 " fill-opacity="1" fill-rule="nonzero"/></g><path fill="#ffffff" d="M 288.03125 8.65625 C 286.976562 8.027344 286.273438 7.039062 285.945312 5.984375 C 285.617188 4.929688 285.664062 3.804688 286.15625 2.800781 C 286.644531 1.792969 287.496094 1.082031 288.527344 0.691406 C 289.558594 0.304688 290.761719 0.242188 291.910156 0.671875 C 293.058594 1.105469 293.925781 1.976562 294.339844 3.078125 C 294.757812 4.175781 294.726562 5.5 294.136719 6.703125 C 293.550781 7.902344 292.535156 8.734375 291.417969 9.074219 C 290.300781 9.417969 289.082031 9.285156 288.03125 8.65625 " fill-opacity="1" fill-rule="nonzero"/><path fill="#ffffff" d="M 269.476562 29.886719 C 267.996094 28.175781 268.132812 25.628906 269.726562 24.144531 C 270.527344 23.398438 271.558594 23.046875 272.59375 23.070312 C 273.628906 23.101562 274.671875 23.5 275.464844 24.304688 C 276.265625 25.101562 276.660156 26.15625 276.636719 27.21875 C 276.609375 28.277344 276.160156 29.34375 275.308594 30.140625 C 273.589844 31.738281 270.960938 31.589844 269.476562 29.886719 " fill-opacity="1" fill-rule="nonzero"/><path fill="#ffffff" d="M 246.90625 46.933594 C 245.753906 45.214844 246.195312 42.902344 247.875 41.746094 C 249.554688 40.589844 251.875 41 253.074219 42.683594 C 254.269531 44.371094 253.851562 46.722656 252.125 47.914062 C 250.398438 49.105469 248.054688 48.652344 246.90625 46.933594 " fill-opacity="1" fill-rule="nonzero"/><path fill="#ffffff" d="M 222.910156 61.953125 C 221.957031 60.335938 222.492188 58.257812 224.089844 57.304688 C 225.691406 56.347656 227.773438 56.867188 228.742188 58.46875 C 229.714844 60.074219 229.191406 62.164062 227.574219 63.136719 C 225.949219 64.101562 223.863281 63.570312 222.910156 61.953125 " fill-opacity="1" fill-rule="nonzero"/><path fill="#ffffff" d="M 198.285156 75.914062 C 197.472656 74.4375 198.011719 72.585938 199.480469 71.773438 C 200.945312 70.960938 202.800781 71.496094 203.617188 72.964844 C 204.433594 74.433594 203.902344 76.292969 202.429688 77.109375 C 200.949219 77.921875 199.09375 77.386719 198.285156 75.914062 " fill-opacity="1" fill-rule="nonzero"/><path fill="#ffffff" d="M 173.40625 89.410156 C 172.695312 88.097656 173.183594 86.460938 174.496094 85.753906 C 175.804688 85.050781 177.441406 85.539062 178.148438 86.847656 C 178.855469 88.160156 178.367188 89.792969 177.054688 90.503906 C 175.746094 91.210938 174.113281 90.71875 173.40625 89.410156 " fill-opacity="1" fill-rule="nonzero"/><path fill="#ffffff" d="M 148.554688 102.96875 C 147.921875 101.835938 148.335938 100.402344 149.46875 99.777344 C 150.605469 99.148438 152.035156 99.5625 152.660156 100.695312 C 153.289062 101.832031 152.875 103.257812 151.742188 103.882812 C 150.609375 104.511719 149.183594 104.101562 148.554688 102.96875 " fill-opacity="1" fill-rule="nonzero"/><path fill="#ffffff" d="M 123.992188 117.039062 C 123.421875 116.09375 123.730469 114.863281 124.683594 114.300781 C 125.640625 113.730469 126.863281 114.046875 127.425781 115 C 127.988281 115.945312 127.675781 117.171875 126.726562 117.734375 C 125.78125 118.292969 124.558594 117.984375 123.992188 117.039062 " fill-opacity="1" fill-rule="nonzero"/><path fill="#ffffff" d="M 100.230469 132.417969 C 99.703125 131.675781 99.878906 130.640625 100.628906 130.117188 C 101.382812 129.589844 102.410156 129.773438 102.929688 130.519531 C 103.449219 131.269531 103.265625 132.296875 102.523438 132.816406 C 101.78125 133.332031 100.761719 133.160156 100.230469 132.417969 " fill-opacity="1" fill-rule="nonzero"/><path fill="#ffffff" d="M 78.355469 150.34375 C 77.855469 149.828125 77.871094 149 78.394531 148.5 C 78.921875 148 79.75 148.023438 80.238281 148.550781 C 80.730469 149.070312 80.703125 149.890625 80.1875 150.382812 C 79.675781 150.871094 78.859375 150.859375 78.355469 150.34375 " fill-opacity="1" fill-rule="nonzero"/><path fill="#ffffff" d="M 62.269531 173.394531 C 61.785156 173.195312 61.554688 172.632812 61.761719 172.144531 C 61.972656 171.648438 62.539062 171.429688 63.015625 171.640625 C 63.496094 171.859375 63.710938 172.414062 63.507812 172.886719 C 63.308594 173.359375 62.757812 173.589844 62.269531 173.394531 " fill-opacity="1" fill-rule="nonzero"/><g clip-path="url(#0177013338)"><path fill="#ffffff" d="M 60.917969 201.007812 C 60.609375 201.125 60.257812 200.964844 60.144531 200.644531 C 60.03125 200.324219 60.199219 199.980469 60.515625 199.875 C 60.828125 199.769531 61.164062 199.9375 61.277344 200.242188 C 61.382812 200.546875 61.226562 200.890625 60.917969 201.007812 " fill-opacity="1" fill-rule="nonzero"/></g><path fill="#ffffff" d="M 308.269531 7.519531 C 307.355469 7.003906 306.738281 6.175781 306.441406 5.277344 C 306.148438 4.378906 306.171875 3.414062 306.585938 2.539062 C 306.996094 1.667969 307.722656 1.042969 308.601562 0.699219 C 309.480469 0.359375 310.507812 0.304688 311.488281 0.671875 C 312.46875 1.042969 313.203125 1.78125 313.566406 2.714844 C 313.929688 3.640625 313.914062 4.753906 313.429688 5.773438 C 312.949219 6.792969 312.101562 7.507812 311.160156 7.8125 C 310.214844 8.125 309.175781 8.035156 308.269531 7.519531 " fill-opacity="1" fill-rule="nonzero"/><path fill="#ffffff" d="M 289.949219 29.09375 C 288.671875 27.648438 288.777344 25.472656 290.136719 24.195312 C 291.496094 22.917969 293.664062 22.957031 295.03125 24.316406 C 296.398438 25.671875 296.359375 27.921875 294.914062 29.28125 C 293.464844 30.644531 291.226562 30.535156 289.949219 29.09375 " fill-opacity="1" fill-rule="nonzero"/><path fill="#ffffff" d="M 267.375 46.335938 C 266.386719 44.871094 266.757812 42.898438 268.191406 41.90625 C 269.625 40.917969 271.597656 41.269531 272.621094 42.707031 C 273.640625 44.140625 273.289062 46.144531 271.824219 47.160156 C 270.351562 48.171875 268.355469 47.792969 267.375 46.335938 " fill-opacity="1" fill-rule="nonzero"/><path fill="#ffffff" d="M 243.3125 61.464844 C 242.5 60.089844 242.949219 58.320312 244.3125 57.503906 C 245.675781 56.691406 247.449219 57.128906 248.277344 58.492188 C 249.105469 59.859375 248.664062 61.644531 247.28125 62.46875 C 245.902344 63.296875 244.125 62.839844 243.3125 61.464844 " fill-opacity="1" fill-rule="nonzero"/><path fill="#ffffff" d="M 218.597656 75.507812 C 217.902344 74.253906 218.363281 72.671875 219.613281 71.980469 C 220.863281 71.292969 222.441406 71.742188 223.136719 72.996094 C 223.832031 74.25 223.382812 75.832031 222.121094 76.527344 C 220.863281 77.21875 219.285156 76.765625 218.597656 75.507812 " fill-opacity="1" fill-rule="nonzero"/><path fill="#ffffff" d="M 193.609375 89.070312 C 193.007812 87.953125 193.425781 86.558594 194.539062 85.953125 C 195.660156 85.355469 197.050781 85.769531 197.65625 86.886719 C 198.257812 88.003906 197.839844 89.398438 196.726562 90 C 195.605469 90.601562 194.214844 90.1875 193.609375 89.070312 " fill-opacity="1" fill-rule="nonzero"/><path fill="#ffffff" d="M 168.648438 102.675781 C 168.117188 101.714844 168.464844 100.496094 169.433594 99.960938 C 170.402344 99.425781 171.617188 99.777344 172.152344 100.742188 C 172.6875 101.710938 172.335938 102.925781 171.371094 103.460938 C 170.402344 103.992188 169.191406 103.644531 168.648438 102.675781 " fill-opacity="1" fill-rule="nonzero"/><path fill="#ffffff" d="M 143.976562 116.792969 C 143.496094 115.988281 143.761719 114.941406 144.570312 114.460938 C 145.378906 113.976562 146.425781 114.246094 146.90625 115.054688 C 147.382812 115.867188 147.117188 116.90625 146.308594 117.386719 C 145.503906 117.863281 144.460938 117.601562 143.976562 116.792969 " fill-opacity="1" fill-rule="nonzero"/><path fill="#ffffff" d="M 120.101562 132.207031 C 119.652344 131.574219 119.800781 130.699219 120.445312 130.246094 C 121.078125 129.800781 121.960938 129.960938 122.402344 130.59375 C 122.839844 131.234375 122.683594 132.109375 122.054688 132.546875 C 121.425781 132.992188 120.550781 132.84375 120.101562 132.207031 " fill-opacity="1" fill-rule="nonzero"/><path fill="#ffffff" d="M 98.105469 150.175781 C 97.683594 149.738281 97.691406 149.03125 98.140625 148.605469 C 98.585938 148.183594 99.289062 148.203125 99.710938 148.648438 C 100.125 149.097656 100.105469 149.792969 99.667969 150.210938 C 99.230469 150.625 98.53125 150.613281 98.105469 150.175781 " fill-opacity="1" fill-rule="nonzero"/><path fill="#ffffff" d="M 81.894531 173.277344 C 81.476562 173.113281 81.277344 172.632812 81.460938 172.21875 C 81.636719 171.796875 82.117188 171.609375 82.527344 171.792969 C 82.933594 171.976562 83.121094 172.449219 82.949219 172.847656 C 82.777344 173.253906 82.304688 173.449219 81.894531 173.277344 " fill-opacity="1" fill-rule="nonzero"/><g clip-path="url(#8860499345)"><path fill="#ffffff" d="M 80.496094 201.007812 C 80.226562 201.109375 79.933594 200.96875 79.832031 200.699219 C 79.738281 200.425781 79.878906 200.132812 80.148438 200.042969 C 80.417969 199.953125 80.703125 200.09375 80.800781 200.355469 C 80.890625 200.617188 80.757812 200.90625 80.496094 201.007812 " fill-opacity="1" fill-rule="nonzero"/></g><path fill="#ffffff" d="M 328.382812 6.535156 C 327.601562 6.113281 327.058594 5.417969 326.796875 4.65625 C 326.535156 3.890625 326.546875 3.058594 326.894531 2.304688 C 327.238281 1.550781 327.859375 1.003906 328.609375 0.703125 C 329.355469 0.410156 330.230469 0.359375 331.066406 0.671875 C 331.898438 0.988281 332.523438 1.617188 332.835938 2.40625 C 333.152344 3.191406 333.148438 4.128906 332.753906 4.992188 C 332.355469 5.855469 331.648438 6.46875 330.851562 6.742188 C 330.054688 7.019531 329.167969 6.953125 328.382812 6.535156 " fill-opacity="1" fill-rule="nonzero"/><path fill="#ffffff" d="M 310.285156 28.410156 C 309.1875 27.191406 309.265625 25.332031 310.421875 24.238281 C 311.585938 23.140625 313.4375 23.167969 314.597656 24.324219 C 315.761719 25.484375 315.734375 27.394531 314.511719 28.550781 C 313.285156 29.710938 311.382812 29.632812 310.285156 28.410156 " fill-opacity="1" fill-rule="nonzero"/><path fill="#ffffff" d="M 287.710938 45.816406 C 286.867188 44.578125 287.179688 42.894531 288.398438 42.046875 C 289.621094 41.199219 291.308594 41.496094 292.175781 42.71875 C 293.042969 43.945312 292.746094 45.648438 291.5 46.511719 C 290.253906 47.375 288.550781 47.058594 287.710938 45.816406 " fill-opacity="1" fill-rule="nonzero"/><path fill="#ffffff" d="M 263.589844 61.046875 C 262.894531 59.878906 263.277344 58.371094 264.441406 57.671875 C 265.601562 56.976562 267.113281 57.355469 267.816406 58.519531 C 268.523438 59.679688 268.148438 61.199219 266.972656 61.898438 C 265.800781 62.601562 264.285156 62.21875 263.589844 61.046875 " fill-opacity="1" fill-rule="nonzero"/><path fill="#ffffff" d="M 238.796875 75.164062 C 238.207031 74.09375 238.597656 72.75 239.664062 72.164062 C 240.730469 71.570312 242.070312 71.957031 242.664062 73.023438 C 243.257812 74.089844 242.875 75.4375 241.800781 76.03125 C 240.734375 76.621094 239.386719 76.230469 238.796875 75.164062 " fill-opacity="1" fill-rule="nonzero"/><path fill="#ffffff" d="M 213.726562 88.777344 C 213.210938 87.824219 213.566406 86.640625 214.519531 86.125 C 215.472656 85.613281 216.65625 85.96875 217.171875 86.921875 C 217.683594 87.871094 217.328125 89.058594 216.375 89.570312 C 215.429688 90.085938 214.238281 89.730469 213.726562 88.777344 " fill-opacity="1" fill-rule="nonzero"/><path fill="#ffffff" d="M 188.675781 102.433594 C 188.21875 101.609375 188.519531 100.570312 189.34375 100.117188 C 190.167969 99.660156 191.203125 99.960938 191.65625 100.785156 C 192.113281 101.609375 191.8125 102.640625 190.988281 103.097656 C 190.167969 103.554688 189.132812 103.253906 188.675781 102.433594 " fill-opacity="1" fill-rule="nonzero"/><path fill="#ffffff" d="M 163.90625 116.582031 C 163.492188 115.898438 163.722656 115.007812 164.410156 114.59375 C 165.101562 114.1875 165.992188 114.414062 166.398438 115.105469 C 166.808594 115.792969 166.578125 116.683594 165.890625 117.089844 C 165.207031 117.5 164.3125 117.273438 163.90625 116.582031 " fill-opacity="1" fill-rule="nonzero"/><path fill="#ffffff" d="M 139.925781 132.03125 C 139.546875 131.492188 139.671875 130.746094 140.21875 130.363281 C 140.761719 129.980469 141.507812 130.117188 141.886719 130.660156 C 142.261719 131.203125 142.128906 131.945312 141.589844 132.320312 C 141.054688 132.699219 140.308594 132.570312 139.925781 132.03125 " fill-opacity="1" fill-rule="nonzero"/><path fill="#ffffff" d="M 117.832031 150.035156 C 117.46875 149.660156 117.480469 149.0625 117.859375 148.699219 C 118.238281 148.335938 118.839844 148.355469 119.195312 148.734375 C 119.550781 149.113281 119.535156 149.707031 119.164062 150.0625 C 118.785156 150.421875 118.191406 150.40625 117.832031 150.035156 " fill-opacity="1" fill-rule="nonzero"/><path fill="#ffffff" d="M 101.507812 173.1875 C 101.15625 173.042969 100.988281 172.636719 101.140625 172.28125 C 101.289062 171.925781 101.703125 171.761719 102.050781 171.914062 C 102.394531 172.070312 102.558594 172.472656 102.40625 172.820312 C 102.261719 173.164062 101.859375 173.328125 101.507812 173.1875 " fill-opacity="1" fill-rule="nonzero"/><g clip-path="url(#ddba42fdf1)"><path fill="#ffffff" d="M 100.066406 201.007812 C 99.84375 201.09375 99.59375 200.972656 99.507812 200.746094 C 99.425781 200.515625 99.546875 200.265625 99.773438 200.1875 C 100 200.109375 100.25 200.226562 100.328125 200.453125 C 100.410156 200.671875 100.296875 200.921875 100.066406 201.007812 " fill-opacity="1" fill-rule="nonzero"/></g><path fill="#ffffff" d="M 348.40625 5.6875 C 347.734375 5.339844 347.261719 4.753906 347.027344 4.105469 C 346.796875 3.457031 346.796875 2.742188 347.089844 2.09375 C 347.378906 1.4375 347.910156 0.964844 348.546875 0.703125 C 349.183594 0.449219 349.933594 0.40625 350.644531 0.671875 C 351.347656 0.941406 351.886719 1.472656 352.15625 2.140625 C 352.425781 2.804688 352.429688 3.601562 352.101562 4.332031 C 351.777344 5.066406 351.183594 5.585938 350.507812 5.828125 C 349.832031 6.070312 349.082031 6.035156 348.40625 5.6875 " fill-opacity="1" fill-rule="nonzero"/><path fill="#ffffff" d="M 330.503906 27.824219 C 329.5625 26.789062 329.625 25.207031 330.609375 24.265625 C 331.597656 23.328125 333.179688 23.34375 334.167969 24.332031 C 335.15625 25.320312 335.136719 26.941406 334.101562 27.929688 C 333.066406 28.917969 331.445312 28.855469 330.503906 27.824219 " fill-opacity="1" fill-rule="nonzero"/><path fill="#ffffff" d="M 307.933594 45.375 C 307.214844 44.320312 307.476562 42.886719 308.515625 42.164062 C 309.558594 41.441406 310.996094 41.691406 311.734375 42.734375 C 312.472656 43.773438 312.21875 45.226562 311.160156 45.960938 C 310.101562 46.699219 308.65625 46.429688 307.933594 45.375 " fill-opacity="1" fill-rule="nonzero"/><path fill="#ffffff" d="M 283.765625 60.691406 C 283.175781 59.699219 283.5 58.414062 284.488281 57.820312 C 285.476562 57.222656 286.765625 57.546875 287.367188 58.535156 C 287.964844 59.527344 287.644531 60.816406 286.644531 61.417969 C 285.648438 62.011719 284.359375 61.691406 283.765625 60.691406 " fill-opacity="1" fill-rule="nonzero"/><path fill="#ffffff" d="M 258.90625 74.867188 C 258.40625 73.960938 258.738281 72.816406 259.644531 72.3125 C 260.550781 71.8125 261.695312 72.136719 262.203125 73.046875 C 262.707031 73.957031 262.378906 75.101562 261.46875 75.605469 C 260.554688 76.109375 259.410156 75.78125 258.90625 74.867188 " fill-opacity="1" fill-rule="nonzero"/><path fill="#ffffff" d="M 233.761719 88.527344 C 233.324219 87.71875 233.628906 86.710938 234.4375 86.269531 C 235.246094 85.835938 236.257812 86.140625 236.695312 86.949219 C 237.132812 87.757812 236.832031 88.765625 236.019531 89.207031 C 235.210938 89.644531 234.199219 89.339844 233.761719 88.527344 " fill-opacity="1" fill-rule="nonzero"/><path fill="#ffffff" d="M 208.632812 102.21875 C 208.246094 101.519531 208.5 100.636719 209.199219 100.246094 C 209.902344 99.859375 210.785156 100.117188 211.171875 100.816406 C 211.558594 101.519531 211.304688 102.398438 210.601562 102.785156 C 209.902344 103.171875 209.023438 102.921875 208.632812 102.21875 " fill-opacity="1" fill-rule="nonzero"/><path fill="#ffffff" d="M 183.78125 116.40625 C 183.433594 115.820312 183.625 115.0625 184.210938 114.710938 C 184.800781 114.363281 185.558594 114.558594 185.90625 115.144531 C 186.25 115.734375 186.058594 116.492188 185.472656 116.835938 C 184.886719 117.183594 184.128906 116.992188 183.78125 116.40625 " fill-opacity="1" fill-rule="nonzero"/><path fill="#ffffff" d="M 159.714844 131.878906 C 159.390625 131.421875 159.503906 130.785156 159.964844 130.460938 C 160.429688 130.136719 161.066406 130.25 161.382812 130.710938 C 161.707031 131.175781 161.59375 131.808594 161.132812 132.128906 C 160.679688 132.449219 160.042969 132.339844 159.714844 131.878906 " fill-opacity="1" fill-rule="nonzero"/><path fill="#ffffff" d="M 137.53125 149.914062 C 137.222656 149.59375 137.234375 149.085938 137.558594 148.777344 C 137.878906 148.46875 138.390625 148.480469 138.691406 148.804688 C 139 149.128906 138.984375 149.636719 138.664062 149.9375 C 138.34375 150.242188 137.839844 150.234375 137.53125 149.914062 " fill-opacity="1" fill-rule="nonzero"/><path fill="#ffffff" d="M 121.117188 173.105469 C 120.816406 172.980469 120.675781 172.636719 120.804688 172.335938 C 120.933594 172.03125 121.28125 171.894531 121.578125 172.027344 C 121.875 172.15625 122.011719 172.5 121.886719 172.792969 C 121.757812 173.085938 121.417969 173.230469 121.117188 173.105469 " fill-opacity="1" fill-rule="nonzero"/><g clip-path="url(#e8cf1f6783)"><path fill="#ffffff" d="M 119.644531 201.007812 C 119.453125 201.082031 119.242188 200.980469 119.167969 200.785156 C 119.097656 200.589844 119.203125 200.378906 119.394531 200.308594 C 119.585938 200.242188 119.796875 200.34375 119.867188 200.535156 C 119.9375 200.722656 119.835938 200.933594 119.644531 201.007812 " fill-opacity="1" fill-rule="nonzero"/></g><path fill="#ffffff" d="M 368.589844 4.46875 C 367.566406 3.964844 367.125 2.765625 367.550781 1.773438 C 367.980469 0.777344 369.148438 0.277344 370.21875 0.671875 C 371.289062 1.066406 371.816406 2.300781 371.34375 3.402344 C 370.871094 4.503906 369.613281 4.96875 368.589844 4.46875 " fill-opacity="1" fill-rule="nonzero"/><path fill="#ffffff" d="M 350.992188 26.980469 C 350.277344 26.214844 350.3125 25.019531 351.054688 24.304688 C 351.796875 23.589844 352.988281 23.601562 353.730469 24.34375 C 354.472656 25.089844 354.464844 26.304688 353.691406 27.046875 C 352.921875 27.789062 351.707031 27.753906 350.992188 26.980469 " fill-opacity="1" fill-rule="nonzero"/><path fill="#ffffff" d="M 328.429688 44.746094 C 327.882812 43.953125 328.078125 42.871094 328.863281 42.324219 C 329.644531 41.78125 330.726562 41.972656 331.28125 42.753906 C 331.835938 43.535156 331.648438 44.628906 330.855469 45.175781 C 330.0625 45.734375 328.972656 45.535156 328.429688 44.746094 " fill-opacity="1" fill-rule="nonzero"/><path fill="#ffffff" d="M 304.195312 60.1875 C 303.746094 59.4375 303.992188 58.46875 304.734375 58.023438 C 305.480469 57.578125 306.445312 57.816406 306.898438 58.5625 C 307.351562 59.308594 307.109375 60.277344 306.359375 60.726562 C 305.613281 61.179688 304.640625 60.933594 304.195312 60.1875 " fill-opacity="1" fill-rule="nonzero"/><path fill="#ffffff" d="M 279.246094 74.449219 C 278.863281 73.765625 279.113281 72.90625 279.796875 72.527344 C 280.480469 72.148438 281.339844 72.398438 281.71875 73.078125 C 282.101562 73.761719 281.851562 74.625 281.167969 75.003906 C 280.484375 75.382812 279.621094 75.132812 279.246094 74.449219 " fill-opacity="1" fill-rule="nonzero"/><path fill="#ffffff" d="M 253.992188 88.175781 C 253.667969 87.570312 253.894531 86.808594 254.5 86.480469 C 255.113281 86.148438 255.867188 86.378906 256.199219 86.988281 C 256.527344 87.59375 256.300781 88.355469 255.691406 88.683594 C 255.082031 89.011719 254.324219 88.789062 253.992188 88.175781 " fill-opacity="1" fill-rule="nonzero"/><path fill="#ffffff" d="M 228.753906 101.921875 C 228.460938 101.394531 228.652344 100.730469 229.179688 100.441406 C 229.707031 100.148438 230.367188 100.339844 230.660156 100.867188 C 230.949219 101.390625 230.757812 102.054688 230.234375 102.347656 C 229.707031 102.636719 229.042969 102.445312 228.753906 101.921875 " fill-opacity="1" fill-rule="nonzero"/><path fill="#ffffff" d="M 203.785156 116.152344 C 203.523438 115.710938 203.667969 115.140625 204.109375 114.878906 C 204.546875 114.617188 205.121094 114.765625 205.378906 115.203125 C 205.640625 115.648438 205.492188 116.21875 205.054688 116.476562 C 204.617188 116.738281 204.042969 116.59375 203.785156 116.152344 " fill-opacity="1" fill-rule="nonzero"/><path fill="#ffffff" d="M 179.597656 131.667969 C 179.351562 131.324219 179.4375 130.84375 179.785156 130.597656 C 180.132812 130.355469 180.609375 130.441406 180.851562 130.785156 C 181.09375 131.136719 181.007812 131.609375 180.664062 131.855469 C 180.320312 132.097656 179.839844 132.011719 179.597656 131.667969 " fill-opacity="1" fill-rule="nonzero"/><path fill="#ffffff" d="M 157.285156 149.742188 C 157.054688 149.5 157.0625 149.117188 157.308594 148.886719 C 157.550781 148.65625 157.933594 148.667969 158.160156 148.90625 C 158.390625 149.152344 158.378906 149.53125 158.140625 149.761719 C 157.898438 149.992188 157.515625 149.980469 157.285156 149.742188 " fill-opacity="1" fill-rule="nonzero"/><path fill="#ffffff" d="M 140.742188 172.992188 C 140.515625 172.898438 140.410156 172.636719 140.507812 172.414062 C 140.605469 172.183594 140.863281 172.082031 141.085938 172.179688 C 141.308594 172.277344 141.414062 172.535156 141.316406 172.757812 C 141.226562 172.976562 140.964844 173.082031 140.742188 172.992188 " fill-opacity="1" fill-rule="nonzero"/><g clip-path="url(#a0b88ca0d0)"><path fill="#ffffff" d="M 139.222656 201.007812 C 139.078125 201.0625 138.917969 200.988281 138.863281 200.84375 C 138.808594 200.695312 138.886719 200.535156 139.03125 200.484375 C 139.175781 200.429688 139.332031 200.503906 139.390625 200.652344 C 139.4375 200.792969 139.363281 200.953125 139.222656 201.007812 " fill-opacity="1" fill-rule="nonzero"/></g><path fill="#ffffff" d="M 388.6875 3.347656 C 387.960938 3.015625 387.628906 2.175781 387.925781 1.464844 C 388.21875 0.753906 389.042969 0.394531 389.796875 0.671875 C 390.546875 0.953125 390.917969 1.808594 390.601562 2.574219 C 390.285156 3.339844 389.414062 3.683594 388.6875 3.347656 " fill-opacity="1" fill-rule="nonzero"/><path fill="#ffffff" d="M 371.386719 26.214844 C 370.878906 25.683594 370.894531 24.839844 371.417969 24.332031 C 371.9375 23.828125 372.777344 23.835938 373.296875 24.359375 C 373.820312 24.875 373.808594 25.726562 373.277344 26.246094 C 372.742188 26.769531 371.894531 26.75 371.386719 26.214844 " fill-opacity="1" fill-rule="nonzero"/><path fill="#ffffff" d="M 348.835938 44.171875 C 348.453125 43.617188 348.585938 42.859375 349.136719 42.476562 C 349.683594 42.089844 350.445312 42.21875 350.835938 42.769531 C 351.226562 43.320312 351.089844 44.082031 350.535156 44.472656 C 349.980469 44.863281 349.21875 44.726562 348.835938 44.171875 " fill-opacity="1" fill-rule="nonzero"/><path fill="#ffffff" d="M 324.539062 59.726562 C 324.226562 59.199219 324.398438 58.523438 324.917969 58.207031 C 325.441406 57.894531 326.121094 58.0625 326.433594 58.582031 C 326.75 59.109375 326.585938 59.789062 326.058594 60.101562 C 325.535156 60.421875 324.855469 60.25 324.539062 59.726562 " fill-opacity="1" fill-rule="nonzero"/><path fill="#ffffff" d="M 299.507812 74.070312 C 299.242188 73.589844 299.414062 72.984375 299.894531 72.71875 C 300.375 72.457031 300.976562 72.628906 301.242188 73.109375 C 301.511719 73.585938 301.335938 74.191406 300.855469 74.457031 C 300.378906 74.722656 299.773438 74.550781 299.507812 74.070312 " fill-opacity="1" fill-rule="nonzero"/><path fill="#ffffff" d="M 274.164062 87.859375 C 273.933594 87.433594 274.09375 86.898438 274.519531 86.667969 C 274.945312 86.4375 275.476562 86.597656 275.707031 87.023438 C 275.9375 87.449219 275.777344 87.984375 275.351562 88.214844 C 274.925781 88.445312 274.390625 88.285156 274.164062 87.859375 " fill-opacity="1" fill-rule="nonzero"/><path fill="#ffffff" d="M 248.820312 101.648438 C 248.613281 101.28125 248.75 100.8125 249.117188 100.609375 C 249.488281 100.402344 249.953125 100.539062 250.15625 100.910156 C 250.359375 101.28125 250.230469 101.746094 249.855469 101.949219 C 249.488281 102.15625 249.023438 102.019531 248.820312 101.648438 " fill-opacity="1" fill-rule="nonzero"/><path fill="#ffffff" d="M 223.746094 115.921875 C 223.558594 115.613281 223.664062 115.214844 223.972656 115.03125 C 224.28125 114.847656 224.683594 114.949219 224.867188 115.257812 C 225.046875 115.570312 224.945312 115.96875 224.636719 116.148438 C 224.328125 116.335938 223.929688 116.230469 223.746094 115.921875 " fill-opacity="1" fill-rule="nonzero"/><path fill="#ffffff" d="M 199.449219 131.472656 C 199.277344 131.230469 199.339844 130.894531 199.578125 130.726562 C 199.824219 130.550781 200.160156 130.613281 200.328125 130.859375 C 200.5 131.101562 200.4375 131.4375 200.199219 131.605469 C 199.953125 131.773438 199.617188 131.71875 199.449219 131.472656 " fill-opacity="1" fill-rule="nonzero"/><path fill="#ffffff" d="M 177.023438 149.585938 C 176.863281 149.414062 176.867188 149.148438 177.039062 148.984375 C 177.207031 148.828125 177.476562 148.832031 177.636719 149.003906 C 177.796875 149.175781 177.789062 149.441406 177.625 149.601562 C 177.453125 149.761719 177.1875 149.753906 177.023438 149.585938 " fill-opacity="1" fill-rule="nonzero"/><path fill="#ffffff" d="M 160.363281 172.886719 C 160.203125 172.820312 160.132812 172.640625 160.199219 172.480469 C 160.261719 172.324219 160.445312 172.25 160.601562 172.316406 C 160.757812 172.386719 160.832031 172.566406 160.765625 172.726562 C 160.699219 172.882812 160.519531 172.953125 160.363281 172.886719 " fill-opacity="1" fill-rule="nonzero"/><g clip-path="url(#5a1bdd9b4f)"><path fill="#ffffff" d="M 158.800781 201.007812 C 158.695312 201.046875 158.585938 200.992188 158.546875 200.890625 C 158.507812 200.789062 158.5625 200.675781 158.664062 200.640625 C 158.765625 200.605469 158.878906 200.65625 158.914062 200.757812 C 158.953125 200.855469 158.898438 200.96875 158.800781 201.007812 " fill-opacity="1" fill-rule="nonzero"/></g><g clip-path="url(#3a2b036185)"><path fill="#ffffff" d="M 408.667969 2.421875 C 408.191406 2.214844 407.964844 1.671875 408.152344 1.199219 C 408.34375 0.730469 408.882812 0.492188 409.371094 0.671875 C 409.859375 0.855469 410.101562 1.40625 409.902344 1.902344 C 409.703125 2.398438 409.148438 2.628906 408.667969 2.421875 " fill-opacity="1" fill-rule="nonzero"/></g><path fill="#ffffff" d="M 391.625 25.578125 C 391.292969 25.234375 391.300781 24.683594 391.640625 24.355469 C 391.980469 24.019531 392.527344 24.023438 392.867188 24.363281 C 393.207031 24.707031 393.203125 25.257812 392.855469 25.59375 C 392.511719 25.933594 391.957031 25.921875 391.625 25.578125 " fill-opacity="1" fill-rule="nonzero"/><path fill="#ffffff" d="M 369.089844 43.695312 C 368.839844 43.339844 368.925781 42.84375 369.28125 42.59375 C 369.640625 42.339844 370.136719 42.425781 370.390625 42.785156 C 370.644531 43.144531 370.558594 43.640625 370.199219 43.894531 C 369.835938 44.148438 369.34375 44.058594 369.089844 43.695312 " fill-opacity="1" fill-rule="nonzero"/><path fill="#ffffff" d="M 344.75 59.351562 C 344.542969 59.007812 344.652344 58.566406 344.992188 58.359375 C 345.335938 58.152344 345.773438 58.261719 345.980469 58.605469 C 346.1875 58.945312 346.078125 59.390625 345.734375 59.59375 C 345.394531 59.796875 344.949219 59.691406 344.75 59.351562 " fill-opacity="1" fill-rule="nonzero"/><path fill="#ffffff" d="M 319.644531 73.761719 C 319.476562 73.449219 319.585938 73.054688 319.898438 72.878906 C 320.210938 72.707031 320.605469 72.820312 320.777344 73.132812 C 320.949219 73.445312 320.839844 73.839844 320.527344 74.011719 C 320.214844 74.183594 319.820312 74.074219 319.644531 73.761719 " fill-opacity="1" fill-rule="nonzero"/><path fill="#ffffff" d="M 294.222656 87.59375 C 294.074219 87.316406 294.175781 86.96875 294.453125 86.820312 C 294.734375 86.671875 295.078125 86.773438 295.230469 87.050781 C 295.382812 87.332031 295.277344 87.675781 294.996094 87.828125 C 294.71875 87.980469 294.371094 87.875 294.222656 87.59375 " fill-opacity="1" fill-rule="nonzero"/><path fill="#ffffff" d="M 268.796875 101.425781 C 268.664062 101.183594 268.75 100.882812 268.992188 100.753906 C 269.234375 100.617188 269.535156 100.707031 269.667969 100.949219 C 269.800781 101.183594 269.714844 101.492188 269.472656 101.621094 C 269.234375 101.753906 268.929688 101.667969 268.796875 101.425781 " fill-opacity="1" fill-rule="nonzero"/><path fill="#ffffff" d="M 243.636719 115.734375 C 243.515625 115.535156 243.585938 115.273438 243.789062 115.15625 C 243.984375 115.035156 244.25 115.101562 244.367188 115.304688 C 244.488281 115.503906 244.417969 115.765625 244.21875 115.882812 C 244.019531 116.003906 243.757812 115.9375 243.636719 115.734375 " fill-opacity="1" fill-rule="nonzero"/><path fill="#ffffff" d="M 219.25 131.316406 C 219.140625 131.15625 219.179688 130.941406 219.339844 130.824219 C 219.496094 130.714844 219.714844 130.753906 219.824219 130.914062 C 219.933594 131.070312 219.894531 131.292969 219.738281 131.402344 C 219.578125 131.511719 219.363281 131.472656 219.25 131.316406 " fill-opacity="1" fill-rule="nonzero"/><path fill="#ffffff" d="M 196.734375 149.457031 C 196.628906 149.347656 196.632812 149.175781 196.742188 149.066406 C 196.851562 148.964844 197.03125 148.96875 197.132812 149.078125 C 197.238281 149.1875 197.234375 149.363281 197.121094 149.46875 C 197.011719 149.570312 196.839844 149.570312 196.734375 149.457031 " fill-opacity="1" fill-rule="nonzero"/><path fill="#ffffff" d="M 179.972656 172.804688 C 179.871094 172.761719 179.820312 172.640625 179.867188 172.539062 C 179.910156 172.433594 180.027344 172.386719 180.128906 172.429688 C 180.234375 172.476562 180.28125 172.59375 180.238281 172.695312 C 180.195312 172.800781 180.078125 172.847656 179.972656 172.804688 " fill-opacity="1" fill-rule="nonzero"/><g clip-path="url(#34131197b3)"><path fill="#ffffff" d="M 178.375 201.007812 C 178.308594 201.03125 178.234375 201 178.214844 200.929688 C 178.1875 200.867188 178.21875 200.792969 178.289062 200.769531 C 178.351562 200.742188 178.425781 200.777344 178.449219 200.84375 C 178.476562 200.910156 178.441406 200.984375 178.375 201.007812 " fill-opacity="1" fill-rule="nonzero"/></g></g></g></g></svg>